<?xml version="1.0" encoding="UTF-8"?>
<svg version="1.1" xmlns="http://www.w3.org/2000/svg" width="198" height="251">
<path d="M0 0 C65.34 0 130.68 0 198 0 C198 82.83 198 165.66 198 251 C132.66 251 67.32 251 0 251 C0 168.17 0 85.34 0 0 Z " fill="#EBEBEB" transform="translate(0,0)"/>
<path d="M0 0 C65.34 0 130.68 0 198 0 C198 82.83 198 165.66 198 251 C132.66 251 67.32 251 0 251 C0 168.17 0 85.34 0 0 Z M2.37548828 15.7925415 C0.89078543 18.17527349 0.50688526 19.35937466 0.5300293 22.13842773 C0.52710373 22.94283798 0.52417816 23.74724823 0.52116394 24.57603455 C0.53867203 25.43652908 0.55618011 26.29702362 0.57421875 27.18359375 C0.57750687 28.07611343 0.58079498 28.96863312 0.58418274 29.88819885 C0.59992315 32.73845881 0.64397269 35.58754362 0.6875 38.4375 C0.69899243 40.35220396 0.70877727 42.26691897 0.71679688 44.18164062 C0.73022611 46.01563696 0.74515049 47.84962309 0.76171875 49.68359375 C0.76910568 50.54206406 0.77649261 51.40053436 0.78410339 52.28501892 C0.848455 56.33386878 1.11845872 60.03235296 2 64 C1.66666667 65.33333333 1.33333333 66.66666667 1 68 C1.31088368 69.67099977 1.64080332 71.33871537 2 73 C1.505 73.495 1.505 73.495 1 74 C0.89535534 75.58269131 0.86036353 77.17003545 0.85282898 78.75616455 C0.84567368 79.78525436 0.83851837 80.81434418 0.83114624 81.87461853 C0.82845734 83.01330887 0.82576843 84.15199921 0.82299805 85.32519531 C0.81642685 86.51699905 0.80985565 87.7088028 0.80308533 88.9367218 C0.7867124 92.21582066 0.77511627 95.49488606 0.7668798 98.77401447 C0.76173363 100.82220273 0.75565765 102.87038643 0.74936867 104.91857147 C0.7303074 111.32527236 0.71607975 117.73196166 0.7077567 124.13868546 C0.69798765 131.53676682 0.67168113 138.9345487 0.63125581 146.33252454 C0.60109503 152.04807708 0.58628778 157.7635438 0.58297569 163.47917438 C0.58062458 166.8938567 0.57165761 170.30821945 0.54651451 173.72281647 C0.52225446 177.53453084 0.52306466 181.34545917 0.5300293 185.15722656 C0.51721924 186.28781998 0.50440918 187.41841339 0.49121094 188.58326721 C0.5204152 192.95884448 0.63352655 196.19016158 2.45021057 200.20469666 C6.29835035 202.91416675 9.66413233 202.66129466 14.26660156 202.56762695 C15.67199188 202.56872215 15.67199188 202.56872215 17.10577393 202.56983948 C20.20131409 202.56635722 23.29534786 202.52746514 26.390625 202.48828125 C28.53724343 202.47895542 30.6838725 202.47183822 32.83050537 202.46684265 C38.47950642 202.44775494 44.12786433 202.39863814 49.77661133 202.34332275 C55.54108988 202.29216893 61.30567238 202.26933683 67.0703125 202.24414062 C78.38049085 202.19052172 89.69019194 202.10518688 101 202 C100.98952637 202.74685059 100.97905273 203.49370117 100.96826172 204.26318359 C100.9267923 207.63375508 100.90070271 211.004273 100.875 214.375 C100.84986328 216.1384375 100.84986328 216.1384375 100.82421875 217.9375 C100.81777344 219.05898437 100.81132813 220.18046875 100.8046875 221.3359375 C100.79421387 222.37282715 100.78374023 223.4097168 100.77294922 224.47802734 C100.74384974 227.17108623 100.74384974 227.17108623 103 229 C106.06293192 229.30803767 106.06293192 229.30803767 109.71289062 229.25878906 C110.4024736 229.2622937 111.09205658 229.26579834 111.80253601 229.26940918 C114.08720905 229.27822829 116.37157368 229.27237687 118.65625 229.265625 C120.24043843 229.2669716 121.82462646 229.26891209 123.40881348 229.27142334 C126.73107838 229.27437484 130.05323585 229.27007618 133.37548828 229.26074219 C137.63961591 229.24934758 141.90349179 229.25590692 146.16761017 229.26788712 C149.43949286 229.27510505 152.7113156 229.27281811 155.98320007 229.26763153 C157.55572031 229.26629485 159.12824595 229.26794341 160.70075989 229.27259064 C162.89635693 229.27765485 165.09154304 229.2699475 167.28710938 229.25878906 C169.16335999 229.25640228 169.16335999 229.25640228 171.07751465 229.25396729 C174.12391832 229.30490447 174.12391832 229.30490447 176 227 C176.29997886 224.45837003 176.29997886 224.45837003 176.24291992 221.46459961 C176.24599655 220.30677475 176.24907318 219.14894989 176.25224304 217.95603943 C176.24505753 216.70081985 176.23787201 215.44560028 176.23046875 214.15234375 C176.23001053 212.87017471 176.22955231 211.58800568 176.2290802 210.26698303 C176.22751538 207.55252676 176.21922513 204.83820239 176.20581055 202.1237793 C176.1888037 198.6375801 176.18499668 195.1515257 176.18575573 191.66528988 C176.1854191 188.34845496 176.17658537 185.03166794 176.16796875 181.71484375 C176.16629951 179.82897804 176.16629951 179.82897804 176.16459656 177.90501404 C176.15821671 176.75034134 176.15183685 175.59566864 176.14526367 174.40600586 C176.14145187 173.38389511 176.13764008 172.36178436 176.13371277 171.30870056 C176.25891062 169.03723099 176.25891062 169.03723099 175 168 C173.48071962 167.92820036 171.95832518 167.91607993 170.4375 167.9375 C169.61121094 167.94652344 168.78492188 167.95554688 167.93359375 167.96484375 C167.29550781 167.97644531 166.65742188 167.98804688 166 168 C166.01571045 167.3702124 166.0314209 166.7404248 166.04760742 166.09155273 C166.11040232 163.20696175 166.14913058 160.32251514 166.1875 157.4375 C166.21263672 156.44685547 166.23777344 155.45621094 166.26367188 154.43554688 C166.32313872 148.46904038 165.82397192 144.28475584 163 139 C161.68 139.33 160.36 139.66 159 140 C159.52268466 142.76276177 160.10869587 145.3260876 161 148 C161.1464714 149.55266653 161.24694074 151.10995662 161.31640625 152.66796875 C161.37924805 154.00698242 161.37924805 154.00698242 161.44335938 155.37304688 C161.48267578 156.30181641 161.52199219 157.23058594 161.5625 158.1875 C161.60568359 159.12787109 161.64886719 160.06824219 161.69335938 161.03710938 C161.79938665 163.35792854 161.90145029 165.67885325 162 168 C159.69 168 157.38 168 155 168 C155.03480469 166.69804687 155.06960937 165.39609375 155.10546875 164.0546875 C155.13361901 162.32813796 155.16091784 160.60157439 155.1875 158.875 C155.21263672 158.0190625 155.23777344 157.163125 155.26367188 156.28125 C155.33248895 150.31710367 154.71429434 145.90767918 150.46484375 141.35546875 C144.49119795 136.78738666 140.47673903 136.24915351 133 137 C128.06377159 139.33348979 125.5230221 142.19829058 123 147 C122.52519274 150.64127549 122.62091592 154.21099809 122.75 157.875 C122.76804687 158.84953125 122.78609375 159.8240625 122.8046875 160.828125 C122.85158266 163.21977807 122.91719093 165.60936597 123 168 C120.69 168 118.38 168 116 168 C116.05239107 164.49883157 116.1475817 161.00003403 116.25 157.5 C116.26417969 156.51773438 116.27835937 155.53546875 116.29296875 154.5234375 C116.53957577 147.12522702 117.7081869 141.32972266 123.03515625 135.94140625 C123.70417969 135.48636719 124.37320313 135.03132813 125.0625 134.5625 C125.73410156 134.08941406 126.40570313 133.61632812 127.09765625 133.12890625 C130.87785694 130.88562494 134.07192593 130.86515315 138.375 130.875 C140.05722656 130.87113281 140.05722656 130.87113281 141.7734375 130.8671875 C144.64264622 130.98529052 147.21208229 131.34217672 150 132 C150.33 130.68 150.66 129.36 151 128 C149.70990357 127.49596232 148.41786211 126.99690074 147.125 126.5 C146.40570313 126.2215625 145.68640625 125.943125 144.9453125 125.65625 C143.02632539 124.89344982 143.02632539 124.89344982 141 125 C141.05107407 123.94860336 141.10214813 122.89720673 141.1547699 121.81394958 C141.62535298 111.80152993 141.96775406 101.79140431 142.19167995 91.77035427 C142.31071228 86.619732 142.47136506 81.47816746 142.73510742 76.33276367 C144.65170949 47.80570403 144.65170949 47.80570403 133.015625 22.765625 C117.31432079 8.09949592 91.99850865 11.27285383 72.12006474 11.90720463 C69.50378663 11.99941769 66.88755213 12.09287625 64.2713623 12.18756104 C58.96028637 12.35517493 53.65018 12.41974975 48.33695698 12.4797945 C41.99087495 12.55322649 35.64591478 12.66994348 29.30078125 12.80078125 C28.09505274 12.82496943 26.88932423 12.8491576 25.64705849 12.87407875 C22.25089889 12.95316039 18.8571069 13.06136482 15.4621582 13.1809082 C13.95298073 13.2135376 13.95298073 13.2135376 12.41331482 13.24682617 C7.06487651 13.43896504 7.06487651 13.43896504 2.37548828 15.7925415 Z " fill="#FEFEFE" transform="translate(0,0)"/>
<path d="M0 0 C1.06579285 -0.03752884 2.13158569 -0.07505768 3.22967529 -0.11372375 C6.76581875 -0.22846096 10.3013399 -0.30916535 13.83862305 -0.38012695 C15.05292685 -0.40516611 16.26723064 -0.43020527 17.51833153 -0.45600319 C23.96371423 -0.58060949 30.40882009 -0.67324567 36.85498047 -0.74609375 C42.15491217 -0.8124986 47.44679856 -0.94403917 52.74365234 -1.13574219 C101.79010503 -2.86442825 101.79010503 -2.86442825 114.63174438 6.85562134 C125.28710031 16.80847769 127.18176389 28.39159979 127.72768211 42.40688133 C127.88129857 50.3488566 127.52358259 58.26219759 127.11712646 66.1918335 C126.87868134 71.34596391 126.77614914 76.50279411 126.66088867 81.66088867 C126.41668479 91.72058511 126.02607382 101.76848202 125.5378418 111.8190918 C127.4559668 112.2831543 127.4559668 112.2831543 129.4128418 112.7565918 C131.63885855 113.29514424 133.48524179 113.79279179 135.5378418 114.8190918 C135.2078418 116.1390918 134.8778418 117.4590918 134.5378418 118.8190918 C133.84303711 118.66053711 133.14823242 118.50198242 132.43237305 118.33862305 C125.04900252 117.0134027 116.90031492 116.48181955 110.2565918 120.40893555 C106.20094218 123.73641171 103.19268034 127.85457617 101.5378418 132.8190918 C101.39006244 134.51776368 101.29037114 136.22086668 101.22143555 137.92456055 C101.17954102 138.9074707 101.13764648 139.89038086 101.09448242 140.90307617 C101.05516602 141.92723633 101.01584961 142.95139648 100.9753418 144.0065918 C100.91056641 145.56023437 100.91056641 145.56023437 100.84448242 147.14526367 C100.73839814 149.7030737 100.63634033 152.26098025 100.5378418 154.8190918 C102.8478418 154.8190918 105.1578418 154.8190918 107.5378418 154.8190918 C107.5064209 153.91199463 107.5064209 153.91199463 107.47436523 152.98657227 C107.39075234 150.22258408 107.33904126 147.45886267 107.2878418 144.6940918 C107.25432617 143.74276367 107.22081055 142.79143555 107.1862793 141.8112793 C107.10455201 135.92691497 107.51671827 132.44814474 111.5378418 127.8190918 C115.23773653 124.38992107 118.1170767 123.51939431 123.0378418 123.3190918 C127.95574282 123.51260486 130.80345197 124.44903268 134.5378418 127.8190918 C138.21013638 131.88839119 139.67216211 134.80536537 139.63549805 140.26831055 C139.63227539 141.11586914 139.62905273 141.96342773 139.62573242 142.83666992 C139.61735352 143.71774414 139.60897461 144.59881836 139.6003418 145.5065918 C139.59583008 146.39926758 139.59131836 147.29194336 139.58666992 148.21166992 C139.57489162 150.41421166 139.55844344 152.61661779 139.5378418 154.8190918 C141.8478418 154.8190918 144.1578418 154.8190918 146.5378418 154.8190918 C146.42741236 151.58925518 146.29691521 148.36052653 146.1628418 145.1315918 C146.11643555 143.76357422 146.11643555 143.76357422 146.0690918 142.36791992 C145.86704285 137.73763153 145.53223191 134.07379071 143.5378418 129.8190918 C143.9128418 127.5065918 143.9128418 127.5065918 144.5378418 125.8190918 C145.5278418 125.8190918 146.5178418 125.8190918 147.5378418 125.8190918 C150.85268612 132.02246188 150.90156594 137.31155311 150.7253418 144.2565918 C150.71180664 145.27430664 150.69827148 146.29202148 150.68432617 147.34057617 C150.64920789 149.83397394 150.60002739 152.32624692 150.5378418 154.8190918 C151.17592773 154.80749023 151.81401367 154.79588867 152.47143555 154.78393555 C153.29772461 154.77491211 154.12401367 154.76588867 154.9753418 154.7565918 C155.79905273 154.74499023 156.62276367 154.73338867 157.47143555 154.72143555 C159.5378418 154.8190918 159.5378418 154.8190918 160.5378418 155.8190918 C160.64207116 157.6187284 160.67638281 159.4224578 160.68310547 161.22509766 C160.68948532 162.37977036 160.69586517 163.53444305 160.70243835 164.72410583 C160.70410759 166.60997154 160.70410759 166.60997154 160.70581055 168.53393555 C160.70913895 169.81514786 160.71246735 171.09636017 160.71589661 172.41639709 C160.72189371 175.1325871 160.72373592 177.84874525 160.72314453 180.56494141 C160.72304289 184.04999771 160.73669396 187.53485035 160.75391674 191.01985836 C160.76769246 194.33705413 160.76712504 197.6542115 160.76831055 200.97143555 C160.77549606 202.22665512 160.78268158 203.48187469 160.79008484 204.77513123 C160.78700821 205.93295609 160.78393158 207.09078094 160.78076172 208.28369141 C160.78218674 209.30659775 160.78361176 210.32950409 160.78507996 211.38340759 C160.5378418 213.8190918 160.5378418 213.8190918 158.5378418 215.8190918 C155.61535645 216.07305908 155.61535645 216.07305908 151.82495117 216.07788086 C150.79057671 216.08313782 150.79057671 216.08313782 149.73530579 216.08850098 C147.45063275 216.09732009 145.16626811 216.09146867 142.8815918 216.0847168 C141.29740336 216.0860634 139.71321533 216.08800389 138.12902832 216.09051514 C134.80676341 216.09346664 131.48460595 216.08916797 128.16235352 216.07983398 C123.89822589 216.06843937 119.63435001 216.07499872 115.37023163 216.08697891 C112.09834894 216.09419685 108.82652619 216.0919099 105.55464172 216.08672333 C103.98212148 216.08538664 102.40959585 216.08703521 100.83708191 216.09168243 C98.64148487 216.09674665 96.44629876 216.08903929 94.25073242 216.07788086 C92.99989868 216.07628967 91.74906494 216.07469849 90.46032715 216.07305908 C87.5378418 215.8190918 87.5378418 215.8190918 85.5378418 213.8190918 C85.31079102 211.29711914 85.31079102 211.29711914 85.3425293 208.1550293 C85.34897461 207.03354492 85.35541992 205.91206055 85.36206055 204.7565918 C85.38719727 202.9931543 85.38719727 202.9931543 85.4128418 201.1940918 C85.42186523 200.01073242 85.43088867 198.82737305 85.44018555 197.6081543 C85.46381367 194.67826657 85.49675666 191.74877839 85.5378418 188.8190918 C84.34402893 188.83019485 83.15021606 188.84129791 81.92022705 188.85273743 C70.67842253 188.95402576 59.43671039 189.02901521 48.19455338 189.07815266 C42.41458391 189.10426397 36.63498233 189.13969076 30.85522461 189.19628906 C25.27905403 189.250553 19.70323763 189.28050077 14.12682343 189.29347801 C11.99768242 189.30272792 9.86856113 189.32079066 7.73957062 189.34774208 C4.76076631 189.38395714 1.78343182 189.38904023 -1.19555664 189.38671875 C-2.52049133 189.41368332 -2.52049133 189.41368332 -3.87219238 189.44119263 C-7.72026168 189.40867031 -9.81571526 189.27382308 -13.01293945 187.02478027 C-15.25763851 182.05948024 -14.98469026 177.34769708 -14.91625977 171.96044922 C-14.91713593 170.15982025 -14.91713593 170.15982025 -14.91802979 168.32281494 C-14.91572392 165.03988375 -14.89569289 161.7576385 -14.86773396 158.47484374 C-14.84269351 155.04090223 -14.84037624 151.60694658 -14.83563232 148.17292786 C-14.82321023 141.67413486 -14.79039929 135.17561169 -14.75023437 128.6769374 C-14.70549256 121.27675858 -14.68352361 113.87656674 -14.66345263 106.47628629 C-14.62166574 91.25706531 -14.55132893 76.03811338 -14.4621582 60.8190918 C-12.4821582 60.3240918 -12.4821582 60.3240918 -10.4621582 59.8190918 C-10.45581029 60.76857272 -10.45581029 60.76857272 -10.44933414 61.73723507 C-10.34616473 77.1178358 -10.23754785 92.49838686 -10.12281895 107.8789053 C-10.06746988 115.31671493 -10.01398518 122.75452936 -9.96484375 130.19238281 C-9.92202247 136.6729353 -9.87574977 143.15345222 -9.82527965 149.63394982 C-9.79866207 153.06737631 -9.77380868 156.50079568 -9.75308418 159.93426323 C-9.72992094 163.7610736 -9.69905421 167.58780007 -9.66748047 171.41455078 C-9.66172501 172.56109634 -9.65596954 173.70764191 -9.65003967 174.88893127 C-9.64025085 175.92524689 -9.63046204 176.9615625 -9.62037659 178.02928162 C-9.61392404 178.93540412 -9.60747149 179.84152662 -9.6008234 180.77510738 C-9.68764424 182.81281397 -9.68764424 182.81281397 -8.4621582 183.8190918 C-5.54098088 183.94438368 -2.64230579 184.00519851 0.28027344 184.02441406 C1.1972551 184.03431366 2.11423676 184.04421326 3.05900574 184.05441284 C6.10530979 184.08612828 9.15162947 184.11082479 12.19799805 184.13549805 C14.30407631 184.15605891 16.41015036 184.17705514 18.51622009 184.19847107 C24.07122398 184.25378137 29.62626565 184.303151 35.18133545 184.35131836 C40.84512716 184.40146815 46.5088637 184.45718818 52.17260742 184.51245117 C63.29430513 184.62014224 74.41605066 184.72156273 85.5378418 184.8190918 C85.5378418 182.8390918 85.5378418 180.8590918 85.5378418 178.8190918 C86.8578418 178.8190918 88.1778418 178.8190918 89.5378418 178.8190918 C89.5378418 189.7090918 89.5378418 200.5990918 89.5378418 211.8190918 C111.6478418 211.8190918 133.7578418 211.8190918 156.5378418 211.8190918 C156.5378418 194.3290918 156.5378418 176.8390918 156.5378418 158.8190918 C134.4278418 158.8190918 112.3178418 158.8190918 89.5378418 158.8190918 C89.5378418 160.7990918 89.5378418 162.7790918 89.5378418 164.8190918 C88.2178418 164.8190918 86.8978418 164.8190918 85.5378418 164.8190918 C85.17963284 157.53550971 85.17963284 157.53550971 86.5378418 154.8190918 C89.75235449 153.21183545 92.97396715 153.76160995 96.5378418 153.8190918 C96.49856567 152.8446814 96.49856567 152.8446814 96.45849609 151.85058594 C96.35352521 148.86117473 96.28920368 145.8721526 96.2253418 142.8815918 C96.18344727 141.86000977 96.14155273 140.83842773 96.09838867 139.78588867 C95.96317872 131.32174595 98.03732798 125.94145338 103.49487305 119.5144043 C109.07884706 114.78859893 113.99033602 111.8190918 121.5378418 111.8190918 C121.5378418 84.0990918 121.5378418 56.3790918 121.5378418 27.8190918 C115.5978418 27.8190918 109.6578418 27.8190918 103.5378418 27.8190918 C99.5378418 24.8190918 99.5378418 24.8190918 99.08374023 22.64257812 C99.1046875 21.82039795 99.12563477 20.99821777 99.1472168 20.15112305 C99.16010742 19.25844727 99.17299805 18.36577148 99.1862793 17.44604492 C99.21979492 16.51727539 99.25331055 15.58850586 99.2878418 14.6315918 C99.30588867 13.6912207 99.32393555 12.75084961 99.3425293 11.78198242 C99.38967629 9.45999291 99.45545949 7.1400549 99.5378418 4.8190918 C85.47360957 4.92620171 71.40943299 5.03900536 57.34529972 5.15843105 C50.81550387 5.21371104 44.28570358 5.267139 37.75585938 5.31640625 C31.45999035 5.36397511 25.16417778 5.41631492 18.86837578 5.47203255 C16.46050856 5.4924901 14.05262585 5.51119741 11.64473152 5.52816582 C8.28490694 5.55213481 4.92519019 5.58219926 1.56542969 5.61376953 C0.5591452 5.61952499 -0.44713928 5.62528046 -1.48391724 5.63121033 C-2.39402054 5.64099915 -3.30412384 5.65078796 -4.24180603 5.66087341 C-5.43506705 5.67055224 -5.43506705 5.67055224 -6.65243435 5.6804266 C-8.48326843 5.6231959 -8.48326843 5.6231959 -9.4621582 6.8190918 C-9.62245508 9.77438683 -9.72173148 12.70891637 -9.77856445 15.66674805 C-9.79934555 16.5531749 -9.82012665 17.43960175 -9.84153748 18.35289001 C-9.9071322 21.1957088 -9.96596373 24.03862296 -10.0246582 26.8815918 C-10.06783401 28.80412786 -10.11144798 30.72665414 -10.15551758 32.64916992 C-10.26282363 37.37237848 -10.36406271 42.09568333 -10.4621582 46.8190918 C-11.7821582 46.4890918 -13.1021582 46.1590918 -14.4621582 45.8190918 C-14.56106897 40.05335495 -14.63364665 34.28811239 -14.68188477 28.52172852 C-14.70199453 26.56037798 -14.72928638 24.59908736 -14.76391602 22.63793945 C-14.81246241 19.81796485 -14.83513306 16.99878315 -14.8527832 14.1784668 C-14.87342834 13.30228699 -14.89407349 12.42610718 -14.91534424 11.52337646 C-14.91564636 10.70282776 -14.91594849 9.88227905 -14.91625977 9.03686523 C-14.92514221 8.31738708 -14.93402466 7.59790894 -14.94317627 6.85662842 C-13.1795498 -0.61388832 -6.26775623 0.13551295 0 0 Z " fill="#0B0C0B" transform="translate(15.462158203125,13.180908203125)"/>
<path d="M0 0 C35.64 0 71.28 0 108 0 C108.33 6.6 108.66 13.2 109 20 C113.9 23.63333333 113.9 23.63333333 130 23 C130 50.72 130 78.44 130 107 C126.04 108.32 122.08 109.64 118 111 C112.1298108 115.23958109 108.34705948 119.09077347 106 126 C105.41423452 130.00133613 105.3056157 133.96027769 105.25 138 C105.22035156 139.06089844 105.19070312 140.12179688 105.16015625 141.21484375 C105.09001771 143.80996964 105.03704598 146.4042265 105 149 C103.72125 149.12375 102.4425 149.2475 101.125 149.375 C97.65209064 149.69042399 97.65209064 149.69042399 95 152 C94.54188325 153.97235333 94.54188325 153.97235333 94.375 156.125 C94.189375 158.043125 94.189375 158.043125 94 160 C95.32 160 96.64 160 98 160 C98 158.02 98 156.04 98 154 C120.11 154 142.22 154 165 154 C165 171.49 165 188.98 165 207 C142.89 207 120.78 207 98 207 C97.67 196.11 97.34 185.22 97 174 C96.34 174 95.68 174 95 174 C94.505 176.97 94.505 176.97 94 180 C62.98 180 31.96 180 0 180 C0 179.67 0 179.34 0 179 C29.7 179 59.4 179 90 179 C90 169.76 90 160.52 90 151 C95 146 95 146 98.3125 145.6875 C99.6428125 145.8421875 99.6428125 145.8421875 101 146 C100.97381592 145.44650879 100.94763184 144.89301758 100.9206543 144.32275391 C100.39455549 131.52323611 100.28396153 122.14596009 109.1875 112.1875 C115.13741851 106.70526067 120.922489 104 129 104 C129 78.59 129 53.18 129 27 C122.73 27 116.46 27 110 27 C105 24 105 24 103 20 C103 13.73 103 7.46 103 1 C69.01 1 35.02 1 0 1 C0 0.67 0 0.34 0 0 Z " fill="#6FBDE3" transform="translate(7,18)"/>
<path d="M0 0 C1.98 0.495 1.98 0.495 4 1 C4 55.12 4 109.24 4 165 C28.75 165 53.5 165 79 165 C79 166.32 79 167.64 79 169 C52.93 169 26.86 169 0 169 C-1.43038022 166.13923956 -1.12598877 163.70793376 -1.12698364 160.50891113 C-1.12854363 159.83482728 -1.13010362 159.16074342 -1.13171089 158.46623278 C-1.1357145 156.19686763 -1.13253371 153.92756883 -1.12939453 151.65820312 C-1.13074885 150.03555766 -1.13252896 148.41291251 -1.13470459 146.79026794 C-1.13927522 142.37509601 -1.13749087 137.95994737 -1.1343255 133.54477501 C-1.1318 128.93190827 -1.13413997 124.31904357 -1.13571167 119.70617676 C-1.13753281 111.95857382 -1.13512852 104.2109804 -1.13037109 96.46337891 C-1.12492858 87.49633347 -1.12669128 78.52931076 -1.1321975 69.56226587 C-1.13673021 61.87393324 -1.1373784 54.18560746 -1.13475883 46.49727392 C-1.13319693 41.90073111 -1.13299992 37.30419899 -1.13629532 32.70765686 C-1.13917632 28.3870493 -1.13719409 24.06647115 -1.13140106 19.74586678 C-1.1300747 18.15672416 -1.13046549 16.56757908 -1.13266373 14.97843742 C-1.13538007 12.81595407 -1.13198813 10.65356608 -1.12698364 8.49108887 C-1.12660662 7.27876335 -1.12622959 6.06643784 -1.12584114 4.81737518 C-1 2 -1 2 0 0 Z " fill="#FCFCFC" transform="translate(10,24)"/>
<path d="M0 0 C3.40563431 2.17380913 4.71751983 3.15255949 6 7 C6.37290034 12.03415457 5.98878273 14.89042374 3 19 C3.48210937 19.45890625 3.96421875 19.9178125 4.4609375 20.390625 C5.09257812 21.00421875 5.72421875 21.6178125 6.375 22.25 C7.00148437 22.85328125 7.62796875 23.4565625 8.2734375 24.078125 C11.97264265 28.19579227 12.23503726 31.24813715 12.125 36.75 C12.10695312 37.92046875 12.08890625 39.0909375 12.0703125 40.296875 C12.04710937 41.18890625 12.02390625 42.0809375 12 43 C10.68 43 9.36 43 8 43 C8 42.34 8 41.68 8 41 C3.74974382 41.13890602 -0.50012842 41.28731994 -4.75 41.4375 C-5.9565625 41.47681641 -7.163125 41.51613281 -8.40625 41.55664062 C-9.56640625 41.59853516 -10.7265625 41.64042969 -11.921875 41.68359375 C-12.99018555 41.72025146 -14.05849609 41.75690918 -15.15917969 41.79467773 C-17.58311152 41.96986909 -19.67886712 42.31198487 -22 43 C-22.68877551 29.03316327 -22.68877551 29.03316327 -20.25 25.375 C-15.75 20.625 -15.75 20.625 -14 19 C-14.495 18.319375 -14.99 17.63875 -15.5 16.9375 C-17.41488105 13.18752461 -17.64701716 11.16966614 -17 7 C-12.61699188 0.05334562 -8.18932526 -2.09123121 0 0 Z " fill="#0C0B0C" transform="translate(144,177)"/>
<path d="M0 0 C35.64 0 71.28 0 108 0 C108.33 6.6 108.66 13.2 109 20 C113.9 23.63333333 113.9 23.63333333 130 23 C130 50.72 130 78.44 130 107 C126.04 108.32 122.08 109.64 118 111 C112.1298108 115.23958109 108.34705948 119.09077347 106 126 C105.41423452 130.00133613 105.3056157 133.96027769 105.25 138 C105.22035156 139.06089844 105.19070312 140.12179688 105.16015625 141.21484375 C105.09001771 143.80996964 105.03704598 146.4042265 105 149 C103.72125 149.12375 102.4425 149.2475 101.125 149.375 C97.65209064 149.69042399 97.65209064 149.69042399 95 152 C94.54188325 153.97235333 94.54188325 153.97235333 94.375 156.125 C94.189375 158.043125 94.189375 158.043125 94 160 C94.99 160.33 95.98 160.66 97 161 C98.22748683 166.57948558 97.73120999 169.06281271 95 174 C94.505 176.97 94.505 176.97 94 180 C62.98 180 31.96 180 0 180 C0 179.67 0 179.34 0 179 C29.7 179 59.4 179 90 179 C90 169.76 90 160.52 90 151 C95 146 95 146 98.3125 145.6875 C99.6428125 145.8421875 99.6428125 145.8421875 101 146 C100.97381592 145.44650879 100.94763184 144.89301758 100.9206543 144.32275391 C100.39455549 131.52323611 100.28396153 122.14596009 109.1875 112.1875 C115.13741851 106.70526067 120.922489 104 129 104 C129 78.59 129 53.18 129 27 C122.73 27 116.46 27 110 27 C105 24 105 24 103 20 C103 13.73 103 7.46 103 1 C69.01 1 35.02 1 0 1 C0 0.67 0 0.34 0 0 Z " fill="#969696" transform="translate(7,18)"/>
<path d="M0 0 C0.495 1.485 0.495 1.485 1 3 C2.65 3 4.3 3 6 3 C8.4590487 7.3835216 9.43657038 11.02303838 10 16 C10.495 17.485 10.495 17.485 11 19 C11.08106686 20.55421729 11.10756898 22.11167027 11.09765625 23.66796875 C11.09443359 24.56064453 11.09121094 25.45332031 11.08789062 26.37304688 C11.07532227 27.76620117 11.07532227 27.76620117 11.0625 29.1875 C11.05798828 30.12787109 11.05347656 31.06824219 11.04882812 32.03710938 C11.03704626 34.35813712 11.02059558 36.67903644 11 39 C8.69 39 6.38 39 4 39 C3.94392578 37.04707031 3.94392578 37.04707031 3.88671875 35.0546875 C3.82103326 33.32809743 3.75458682 31.60153619 3.6875 29.875 C3.65366211 28.59109375 3.65366211 28.59109375 3.61914062 27.28125 C3.40239738 22.15822779 2.83561387 18.43150284 0 14 C-5.1754603 9.32946265 -8.39368944 8.64711978 -15.234375 8.71875 C-20.00771522 9.20417443 -22.64893194 11.35123898 -25.61328125 14.96875 C-27.68278362 19.4925073 -27.57181721 23.89102338 -27.6875 28.8125 C-27.72166016 29.79154297 -27.75582031 30.77058594 -27.79101562 31.77929688 C-27.87319858 34.18608345 -27.94244433 36.59251945 -28 39 C-30.31 39 -32.62 39 -35 39 C-35.1173794 35.50028801 -35.18763961 32.00109045 -35.25 28.5 C-35.28351563 27.51773438 -35.31703125 26.53546875 -35.3515625 25.5234375 C-35.45165141 18.01676922 -34.20989179 12.71974037 -29.25390625 6.9765625 C-28.69574219 6.53054687 -28.13757813 6.08453125 -27.5625 5.625 C-27.00691406 5.16351563 -26.45132813 4.70203125 -25.87890625 4.2265625 C-21.44801997 1.33405046 -17.75461592 0.74497573 -12.5 0.8125 C-11.3965625 0.81894531 -10.293125 0.82539063 -9.15625 0.83203125 C-6.32773917 0.98255844 -3.75307445 1.35795838 -1 2 C-0.67 1.34 -0.34 0.68 0 0 Z " fill="#DEB125" transform="translate(151,129)"/>
<path d="M0 0 C4.12694748 2.05126384 5.94375427 4.88750853 8 9 C8 11.97 8 14.94 8 18 C-0.58 18 -9.16 18 -18 18 C-18 7.5 -18 7.5 -15 3 C-10.53638929 -1.10966801 -5.77920558 -0.90326223 0 0 Z " fill="#F75A3B" transform="translate(144,200)"/>
<path d="M0 0 C24.42 0 48.84 0 74 0 C74 1.32 74 2.64 74 4 C49.91 4 25.82 4 1 4 C0.67 2.68 0.34 1.36 0 0 Z " fill="#050505" transform="translate(36,115)"/>
<path d="M0 0 C24.09 0 48.18 0 73 0 C73 1.32 73 2.64 73 4 C48.58 4 24.16 4 -1 4 C-0.67 2.68 -0.34 1.36 0 0 Z " fill="#0F0F0F" transform="translate(37,99)"/>
<path d="M0 0 C24.42 0 48.84 0 74 0 C74 1.32 74 2.64 74 4 C49.91 4 25.82 4 1 4 C0.67 2.68 0.34 1.36 0 0 Z " fill="#080808" transform="translate(36,84)"/>
<path d="M0 0 C0.99261337 0.00222061 1.98522675 0.00444122 3.00791931 0.00672913 C4.12900589 0.00680466 5.25009247 0.00688019 6.40515137 0.00695801 C8.2348069 0.01469994 8.2348069 0.01469994 10.10142517 0.02259827 C11.96377052 0.02472069 11.96377052 0.02472069 13.86373901 0.02688599 C17.16982383 0.03154861 20.47584039 0.04053955 23.78190613 0.05158997 C27.15338042 0.06180625 30.52486175 0.06638407 33.89634705 0.07142639 C40.51550667 0.08248056 47.13463385 0.09923715 53.75376892 0.12025452 C54.31626892 2.05775452 54.31626892 2.05775452 54.75376892 4.12025452 C53.75376892 5.12025452 53.75376892 5.12025452 51.50753784 5.24050903 C50.51492447 5.23828842 49.5223111 5.23606781 48.49961853 5.23377991 C47.37853195 5.23370438 46.25744537 5.23362885 45.10238647 5.23355103 C43.27273094 5.2258091 43.27273094 5.2258091 41.40611267 5.21791077 C40.1645491 5.21649582 38.92298553 5.21508087 37.64379883 5.21362305 C34.33771401 5.20896042 31.03169746 5.19996948 27.72563171 5.18891907 C24.35415742 5.17870279 20.98267609 5.17412496 17.6111908 5.16908264 C10.99203118 5.15802847 4.37290399 5.14127188 -2.24623108 5.12025452 C-2.80873108 3.18275452 -2.80873108 3.18275452 -3.24623108 1.12025452 C-2.24623108 0.12025452 -2.24623108 0.12025452 0 0 Z " fill="#222222" transform="translate(39.24623107910156,129.87974548339844)"/>
<path d="M0 0 C1.32 0.33 2.64 0.66 4 1 C4.20625 2.27875 4.4125 3.5575 4.625 4.875 C5.08483533 7.07813968 5.08483533 7.07813968 6 9 C8.99428144 10.61147442 8.99428144 10.61147442 12 11 C12 12.32 12 13.64 12 15 C11.071875 15.144375 10.14375 15.28875 9.1875 15.4375 C5.90682422 16.64580985 5.90682422 16.64580985 4.93359375 19.13671875 C4.19449517 21.41114288 3.54605174 23.67209519 3 26 C1.0859375 25.70703125 1.0859375 25.70703125 -1 25 C-1.71673573 23.27331847 -2.42807979 21.54338393 -3.07421875 19.7890625 C-4.64892703 16.74595536 -7.05751495 15.63471392 -10 14 C-8.48818898 10.22047244 -8.48818898 10.22047244 -6.0625 9.125 C-3.49970111 7.7271097 -2.9374838 6.50442841 -1.75 3.875 C-1.41484375 3.15054688 -1.0796875 2.42609375 -0.734375 1.6796875 C-0.49203125 1.12539062 -0.2496875 0.57109375 0 0 Z " fill="#11100D" transform="translate(75,158)"/>
<path d="M0 0 C1.32 0 2.64 0 4 0 C4.23074219 0.54269531 4.46148437 1.08539063 4.69921875 1.64453125 C6.83554761 6.33094436 8.33175381 8.5362034 13 11 C13 11.99 13 12.98 13 14 C12.071875 14.350625 11.14375 14.70125 10.1875 15.0625 C6.18445872 17.49572117 5.7278814 19.75883656 4 24 C1.8125 24.9375 1.8125 24.9375 0 25 C-0.37125 23.9275 -0.7425 22.855 -1.125 21.75 C-2.86877243 17.59695744 -5.12258093 16.1541217 -9 14 C-8.8125 12.1875 -8.8125 12.1875 -8 10 C-7.21625 9.566875 -6.4325 9.13375 -5.625 8.6875 C-1.96638695 6.33553447 -1.44880487 4.04140305 0 0 Z " fill="#0E0D0B" transform="translate(162,94)"/>
<path d="M0 0 C0 8.91 0 17.82 0 27 C-3.3 27 -6.6 27 -10 27 C-10.10845027 23.95736733 -10.18752063 20.91863796 -10.25 17.875 C-10.28351563 17.0190625 -10.31703125 16.163125 -10.3515625 15.28125 C-10.43800346 9.66258763 -9.82600058 6.41779204 -6 2 C-3 0 -3 0 0 0 Z " fill="#9E9E9E" transform="translate(137,141)"/>
<path d="M0 0 C19.14 0 38.28 0 58 0 C58 1.32 58 2.64 58 4 C39.19 4 20.38 4 1 4 C0.67 2.68 0.34 1.36 0 0 Z " fill="#0D0D0D" transform="translate(36,146)"/>
<path d="M0 0 C2.84728568 1.98072047 4.66712064 3.44237582 5.4140625 6.9375 C5.55298551 10.27165218 5.05786359 12.82640923 4 16 C1.71485088 18.28514912 1.11070232 18.36276313 -2 18.5 C-4.45781119 18.46276044 -5.67533853 18.21742035 -7.7265625 16.84375 C-9.54856197 14.20576304 -9.39835578 12.17638631 -9.375 9 C-9.38273437 7.948125 -9.39046875 6.89625 -9.3984375 5.8125 C-9 3 -9 3 -7.65625 1.15625 C-4.98050289 -0.7117244 -3.17080112 -0.50732818 0 0 Z " fill="#141414" transform="translate(48,52)"/>
<path d="M0 0 C6.49001016 2.59600406 6.49001016 2.59600406 9 7 C9.46730794 10.28952462 9.3784977 13.49874206 9.25 16.8125 C9.23195312 17.69615234 9.21390625 18.57980469 9.1953125 19.49023438 C9.14838513 21.66062543 9.07664731 23.83045519 9 26 C6.03 26 3.06 26 0 26 C0 17.42 0 8.84 0 0 Z " fill="#FAFAFA" transform="translate(141,141)"/>
<path d="M0 0 C2.5 1.5625 2.5 1.5625 4 4 C3.93866496 7.4960972 3.65265114 9.93514814 1.8125 12.9375 C-1.00547398 14.58941578 -2.79404815 14.5129523 -6 14 C-8.9375 11.875 -8.9375 11.875 -11 9 C-11 5.76578825 -10.53173428 3.88622381 -8.875 1.125 C-5.83167192 -0.70099685 -3.45750445 -0.42460581 0 0 Z " fill="#F1AD98" transform="translate(142,181)"/>
<path d="M0 0 C3.96 0 7.92 0 12 0 C12.33 1.32 12.66 2.64 13 4 C11.68 4.33 10.36 4.66 9 5 C9 7.97 9 10.94 9 14 C10.32 14.33 11.64 14.66 13 15 C12.67 16.32 12.34 17.64 12 19 C8.04 19 4.08 19 0 19 C0 17.35 0 15.7 0 14 C1.32 14 2.64 14 4 14 C4 10.7 4 7.4 4 4 C2.68 4 1.36 4 0 4 C0 2.68 0 1.36 0 0 Z " fill="#1B1B1B" transform="translate(73,52)"/>
<path d="M0 0 C3.30895518 0.04221952 4.45581682 0.16356081 7.3125 2 C8.6875 4.3125 8.6875 4.3125 8.5625 6.9375 C7.6875 9.3125 7.6875 9.3125 5.6875 11.3125 C2.0625 11.4375 2.0625 11.4375 -1.3125 11.3125 C-1.3125 13.6225 -1.3125 15.9325 -1.3125 18.3125 C-2.6325 18.3125 -3.9525 18.3125 -5.3125 18.3125 C-5.33934312 15.49993719 -5.35926188 12.68762759 -5.375 9.875 C-5.38337891 9.07255859 -5.39175781 8.27011719 -5.40039062 7.44335938 C-5.4090143 5.39954779 -5.3647815 3.35566098 -5.3125 1.3125 C-3.74308802 -0.25691198 -2.17115006 0.0675153 0 0 Z " fill="#1E1E1E" transform="translate(27.3125,51.6875)"/>
<path d="M0 0 C3.57119484 0.50122033 5.00804831 1.04772637 7.5625 3.5 C7.2325 5.15 6.9025 6.8 6.5625 8.5 C5.5725 8.17 4.5825 7.84 3.5625 7.5 C3.2325 6.84 2.9025 6.18 2.5625 5.5 C1.2425 5.17 -0.0775 4.84 -1.4375 4.5 C-1.4375 7.8 -1.4375 11.1 -1.4375 14.5 C0.2125 14.5 1.8625 14.5 3.5625 14.5 C3.5625 13.51 3.5625 12.52 3.5625 11.5 C4.8825 11.5 6.2025 11.5 7.5625 11.5 C6.6875 17.375 6.6875 17.375 5.5625 18.5 C1.60431383 18.98097481 -2.14982595 19.39746979 -5.5 17.0625 C-7.31564485 12.0997374 -7.09533095 7.39610098 -5.375 2.4375 C-3.4375 0.5 -3.4375 0.5 0 0 Z " fill="#161616" transform="translate(95.4375,51.5)"/>
<path d="M0 0 C1.98 0.495 1.98 0.495 4 1 C4 11.23 4 21.46 4 32 C1.525 32.495 1.525 32.495 -1 33 C-1.02465392 28.46102295 -1.04283789 23.92208457 -1.05493164 19.38305664 C-1.0599714 17.83780234 -1.0668032 16.29255284 -1.07543945 14.74731445 C-1.08752076 12.53074971 -1.09323173 10.31424782 -1.09765625 8.09765625 C-1.10281754 7.4028566 -1.10797882 6.70805695 -1.11329651 5.99220276 C-1.11349277 4.3277067 -1.06189129 2.66334501 -1 1 C-0.67 0.67 -0.34 0.34 0 0 Z " fill="#B8DFFA" transform="translate(110,176)"/>
<path d="M0 0 C0.99 0.33 1.98 0.66 3 1 C3 11.56 3 22.12 3 33 C1.68 33 0.36 33 -1 33 C-1.02465392 28.46102295 -1.04283789 23.92208457 -1.05493164 19.38305664 C-1.0599714 17.83780234 -1.0668032 16.29255284 -1.07543945 14.74731445 C-1.08752076 12.53074971 -1.09323173 10.31424782 -1.09765625 8.09765625 C-1.10281754 7.4028566 -1.10797882 6.70805695 -1.11329651 5.99220276 C-1.11349277 4.3277067 -1.06189129 2.66334501 -1 1 C-0.67 0.67 -0.34 0.34 0 0 Z " fill="#BFE2FB" transform="translate(165,187)"/>
<path d="M0 0 C1.98 0.495 1.98 0.495 4 1 C4 5.29 4 9.58 4 14 C6.64 14 9.28 14 12 14 C12.5625 15.9375 12.5625 15.9375 13 18 C11.26150372 19.73849628 8.9213363 19.17216296 6.5625 19.1875 C5.57378906 19.20167969 4.58507813 19.21585938 3.56640625 19.23046875 C1 19 1 19 -1 17 C-1.17201285 14.45770841 -1.23257617 12.03850004 -1.1875 9.5 C-1.18685547 8.81035156 -1.18621094 8.12070312 -1.18554688 7.41015625 C-1.14055525 2.28111049 -1.14055525 2.28111049 0 0 Z " fill="#202020" transform="translate(56,52)"/>
<path d="M0 0 C0.99 0 1.98 0 3 0 C3.66 1.65 4.32 3.3 5 5 C6.65 3.35 8.3 1.7 10 0 C10.99 0.33 11.98 0.66 13 1 C12.56286876 3.44793496 12.17390885 4.80435254 10.5 6.6875 C8.22517656 10.19451946 8.25427534 13.89652212 8 18 C6.68 18 5.36 18 4 18 C3.96132812 17.11248047 3.96132812 17.11248047 3.921875 16.20703125 C3.52996132 10.74696115 2.62966537 8.2346096 -1 4 C-0.75 1.6875 -0.75 1.6875 0 0 Z " fill="#0E0E0E" transform="translate(107,52)"/>
<path d="M0 0 C3.78952091 1.89476045 5.8106895 3.54147832 8.75 6.5 C9.94882813 7.69109375 9.94882813 7.69109375 11.171875 8.90625 C13 11 13 11 13 13 C8.71 13 4.42 13 0 13 C0 8.71 0 4.42 0 0 Z " fill="#E2E2E2" transform="translate(119,23)"/>
<path d="M0 0 C0 6.27 0 12.54 0 19 C-1.65 19 -3.3 19 -5 19 C-5.10826289 16.5821288 -5.18739789 14.16912444 -5.25 11.75 C-5.28351563 11.06808594 -5.31703125 10.38617188 -5.3515625 9.68359375 C-5.42070197 6.12291123 -5.27950341 4.35552834 -3.046875 1.515625 C-1 0 -1 0 0 0 Z " fill="#ECECEC" transform="translate(136,145)"/>
<path d="M0 0 C3.15140423 0.34069235 4.60781561 0.58076841 6.8125 2.9375 C8 5 8 5 8 7 C7.01 7 6.02 7 5 7 C5 7.99 5 8.98 5 10 C3.35 10 1.7 10 0 10 C0 6.7 0 3.4 0 0 Z " fill="#E0E0E0" transform="translate(94,56)"/>
<path d="M0 0 C1.65 0 3.3 0 5 0 C5 2.97 5 5.94 5 9 C3.35 9 1.7 9 0 9 C0 6.03 0 3.06 0 0 Z " fill="#E2E2E2" transform="translate(43,57)"/>
<path d="M0 0 C0.66 0.66 1.32 1.32 2 2 C1.6913753 4.33672984 1.35543427 6.66993089 1 9 C1.35974895 11.81237541 1.35974895 11.81237541 2 14 C1.01 14 0.02 14 -1 14 C-1.02685938 11.85423363 -1.04633088 9.70837355 -1.0625 7.5625 C-1.07410156 6.36753906 -1.08570312 5.17257813 -1.09765625 3.94140625 C-1 1 -1 1 0 0 Z " fill="#F8F8F8" transform="translate(1,59)"/>
<path d="M0 0 C2.0625 0.4375 2.0625 0.4375 4 1 C3.67 2.98 3.34 4.96 3 7 C1.68 6.67 0.36 6.34 -1 6 C-1.042721 4.33388095 -1.04063832 2.66617115 -1 1 C-0.67 0.67 -0.34 0.34 0 0 Z " fill="#B5DDF9" transform="translate(110,214)"/>
<path d="M0 0 C1.32 0.33 2.64 0.66 4 1 C4 2.65 4 4.3 4 6 C2.68 6 1.36 6 0 6 C0 4.02 0 2.04 0 0 Z " fill="#BBE0FA" transform="translate(164,176)"/>
<path d="M0 0 C0.66 0 1.32 0 2 0 C2 0.66 2 1.32 2 2 C2.66 2 3.32 2 4 2 C3.34 3.32 2.68 4.64 2 6 C0.68 5.34 -0.64 4.68 -2 4 C-1.34 2.68 -0.68 1.36 0 0 Z " fill="#CFA51C" transform="translate(163,103)"/>
<path d="M0 0 C1.32 0.66 2.64 1.32 4 2 C3.34 3.32 2.68 4.64 2 6 C1.01 5.34 0.02 4.68 -1 4 C-0.67 2.68 -0.34 1.36 0 0 Z " fill="#E5B71E" transform="translate(75,168)"/>
<path d="M0 0 C1.98 0 3.96 0 6 0 C6 0.99 6 1.98 6 3 C4.02 3 2.04 3 0 3 C0 2.01 0 1.02 0 0 Z " fill="#E7A723" transform="translate(155,164)"/>
<path d="M0 0 C1.98 0 3.96 0 6 0 C6 0.99 6 1.98 6 3 C4.02 3 2.04 3 0 3 C0 2.01 0 1.02 0 0 Z " fill="#E7A723" transform="translate(116,164)"/>
</svg>
